# xmcd
#
# Track frame offsets: 
#        150
#        13935
#        24802
#        37370
#        50891
#        62580
#        75286
#        89802
#        105499
#        119423
#        132979
#        145628
#        157780
#        170768
#        184462
#        196258
#        214422
#
# Disc length: 3067 seconds
#
# Revision: 2
# Processed by: cddbd v1.5.2PL0 Copyright (c) Steve Scherf et al.
# Submitted via: ExactAudioCopyFreeDBPlugin 1.0
#
DISCID=f30bf911
DTITLE=Queen Latifah - Bessie - Music from the HBO film
DYEAR=2015
DGENRE=Blues
TTITLE0=Young Woman's Blues
TTITLE1=Vince Giordano and The Nighthawks - A Hot Time in the Old Town
TTITLE2=Carmen Twillie - Prove It on Me
TTITLE3=Louis Armstrong and His Hot Seven - Weary Blues
TTITLE4=Queen Latifah and Pat Bass - Weepin' Woman Blues
TTITLE5=Tamar-Kali - See See Rider
TTITLE6=Kid Ory's Creole Jazz Band - Ballin' the Jack
TTITLE7=Down Hearted Blues
TTITLE8=Fats Waller and His Rhythm - A Good Man Is Hard to Find
TTITLE9=Preachin' the Bues
TTITLE10=Vince Giordano and The Nighthawks - I've Got What It Takes (b
TTITLE10=ut It Breaks My Heart to Give It Away)
TTITLE11=Work House Blues
TTITLE12=Sippie Wallace - I'm a Mighty Tight Woman
TTITLE13=Louis Armstrong and His Orchestra - (What Did I Do to Be So) 
TTITLE13=Black and Blue
TTITLE14=Cécile McLarin Salvant - Laugh, Clown, Laugh
TTITLE15=Long Old Road
TTITLE16=Bessie Smith featuring Queen Latifah - Gimme a Pigfoot and a 
TTITLE16=Bottle of Beer (2015 Remix)
EXTD=
EXTT0=
EXTT1=
EXTT2=
EXTT3=
EXTT4=
EXTT5=
EXTT6=
EXTT7=
EXTT8=
EXTT9=
EXTT10=
EXTT11=
EXTT12=
EXTT13=
EXTT14=
EXTT15=
EXTT16=
PLAYORDER=
